# File produced by Open Asset Import Library (http://www.assimp.sf.net)
# (assimp v3.1.243586452)

mtllib dice.mtl

# vertex positions
v -2.500000 0.000000 2.500000
v -2.500000 0.000000 -2.500000
v 2.500000 0.000000 -2.500000
v 2.500000 0.000000 2.500000
v -2.500000 5.000000 2.500000
v 2.500000 5.000000 2.500000
v 2.500000 5.000000 -2.500000
v -2.500000 5.000000 -2.500000

# UV coordinates
vt 0.554497 0.769057
vt 0.000000 0.000000
vt 0.291940 0.182739
vt 0.500827 0.411585
vt 0.713125 0.320677
vt 0.574474 0.252666
vt 0.556105 0.107704
vt 0.999999 0.000000
vt 0.957718 0.479106

# vertex normals
vn 0.000000 -1.000000 -0.000000
vn 0.000000 1.000000 0.000000
vn 0.000000 -0.000000 1.000000
vn 1.000000 0.000000 0.000000
vn 0.000000 0.000000 -1.000000
vn -1.000000 0.000000 0.000000

# Mesh
g Box001
usemtl DefaultMaterial
f 4/4/1 1/1/1 2/2/1
f 2/2/1 3/3/1 4/4/1
f 8/8/2 5/5/2 6/6/2
f 6/6/2 7/7/2 8/8/2
f 5/5/3 1/1/3 4/4/3
f 4/4/3 6/6/3 5/5/3
f 6/6/4 4/4/4 3/3/4
f 3/3/4 7/7/4 6/6/4
f 7/7/5 3/3/5 2/2/5
f 2/2/5 8/8/5 7/7/5
f 8/8/6 2/9/6 1/1/6
f 1/1/6 5/5/6 8/8/6
